<svg width="36" height="40" viewBox="0 0 36 40" fill="none" xmlns="http://www.w3.org/2000/svg">
<path d="M28.4978 11.7018H21.6625C20.5527 11.7018 20.3005 10.9451 20.2753 10.3145V3.52968C22.7849 3.90801 27.8295 5.4592 28.4978 11.7018ZM31.348 37.9963C31.348 37.227 30.73 36.6091 29.9608 36.6091H7.58835C6.89473 36.5964 3.42663 36.3694 3.42663 32.4599V7.55267C3.43924 6.85905 3.66625 3.39095 7.57574 3.39095H17.5134V10.3145C17.5134 11.9792 18.6232 14.4637 21.6625 14.4637H28.5861H29.9734C30.7427 14.4637 31.3606 13.8457 31.3606 13.0764C31.3606 3.227 23.2137 0.61647 18.9007 0.61647H7.58835C2.11506 0.61647 0.664764 5.14392 0.664764 7.54006V32.4473C0.664764 37.9206 5.19221 39.3709 7.58835 39.3709H29.9734C30.73 39.3835 31.348 38.753 31.348 37.9963ZM6.1885 13.0764C6.1885 12.3071 6.80646 11.6892 7.57574 11.6892H10.5898C11.3591 11.6892 11.9771 12.3071 11.9771 13.0764C11.9771 13.8457 11.3591 14.4637 10.5898 14.4637H7.57574C6.80646 14.4637 6.1885 13.8457 6.1885 13.0764ZM17.69 18.6128C17.69 19.3821 17.072 20 16.3027 20H7.57574C6.80646 20 6.1885 19.3821 6.1885 18.6128C6.1885 17.8435 6.80646 17.2255 7.57574 17.2255H16.3027C17.072 17.2381 17.69 17.8561 17.69 18.6128ZM15.4956 25.4355C15.4956 26.2048 14.8777 26.8227 14.1084 26.8227H7.57574C6.80646 26.8227 6.1885 26.2048 6.1885 25.4355C6.1885 24.6662 6.80646 24.0482 7.57574 24.0482H14.1084C14.8777 24.0608 15.4956 24.6788 15.4956 25.4355ZM17.69 32.3591C17.69 33.1283 17.072 33.7463 16.3027 33.7463H7.57574C6.80646 33.7463 6.1885 33.1283 6.1885 32.3591C6.1885 31.5898 6.80646 30.9718 7.57574 30.9718H16.3027C17.072 30.9718 17.69 31.5898 17.69 32.3591Z" fill="white"/>
<path d="M26.5807 34.8056C31.7 34.8056 35.85 30.6556 35.85 25.5363C35.85 20.4171 31.7 16.2671 26.5807 16.2671C21.4614 16.2671 17.3114 20.4171 17.3114 25.5363C17.3114 30.6556 21.4614 34.8056 26.5807 34.8056Z" fill="white"/>
<path d="M30.9821 18.8019C30.7677 18.701 30.5281 18.7893 30.4146 18.9911L25.1304 28.6135L20.8804 26.3435C20.6913 26.2426 20.4516 26.293 20.3255 26.457C20.1994 26.6209 20.1994 26.8605 20.3508 27.0245L25.6349 32.7878C25.7232 32.8761 25.8367 32.9266 25.9628 32.9266C25.988 32.9266 26.0258 32.9266 26.0511 32.9139C26.2024 32.8887 26.3285 32.7752 26.3789 32.6365L31.2217 19.3442C31.2847 19.1424 31.1838 18.9028 30.9821 18.8019Z" fill="#2C405A"/>
</svg>

