<svg width="32" height="40" viewBox="0 0 32 40" fill="none" xmlns="http://www.w3.org/2000/svg">
<path d="M15.9621 39.3583C15.6216 39.3583 15.3064 39.2826 15.0163 39.1313C9.26555 36.2685 3.17431 32.7122 1.57268 28.0964C0.626833 25.3598 0.916892 21.7403 1.13128 19.092L1.1439 18.8398C1.1439 18.8271 1.1439 18.8271 1.1439 18.8145C1.16912 18.5623 1.18173 18.3101 1.20695 18.0705C1.23217 17.793 1.24479 17.5156 1.27001 17.2507L1.30784 16.7967C1.58529 13.3665 1.83752 10.138 1.96363 6.8086C2.00146 5.6988 2.89686 4.79079 4.00665 4.75296C8.3071 4.61423 11.8887 3.39094 14.6632 1.12091C14.6632 1.12091 14.6758 1.12091 14.6758 1.1083C15.4577 0.477735 16.5423 0.477735 17.3242 1.1083C17.3242 1.1083 17.3368 1.1083 17.3368 1.12091C20.1113 3.40355 23.6929 4.62684 27.9933 4.75296C29.1031 4.79079 30.0111 5.6988 30.0489 6.8086C30.1877 10.3271 30.4651 13.7574 30.7173 17.0742V17.0868C30.7552 17.6543 30.8056 18.2218 30.8434 18.7767L30.8561 18.9785C31.0578 21.4881 31.3605 25.2589 30.3894 28.046C28.7878 32.6869 22.6587 36.2559 16.8828 39.1313C16.6179 39.2826 16.29 39.3583 15.9621 39.3583ZM16.0883 36.9874C16.0883 37 16.0883 37 16.0883 36.9874C16.0883 37 16.0883 37 16.0883 36.9874Z" fill="white"/>
<path d="M21.6372 27.3271L16.0126 23.2411L10.3753 27.3271C10.1861 27.4659 9.93392 27.2767 10.0096 27.0623L12.1535 20.4414L6.52887 16.3553C6.3397 16.2166 6.44059 15.9266 6.6676 15.9266H13.629L15.7729 9.30563C15.8486 9.07863 16.1639 9.07863 16.2269 9.30563L18.3709 15.9266H25.3323C25.5593 15.9266 25.6602 16.2292 25.471 16.3553L19.8464 20.4414L21.9903 27.0623C22.0786 27.2767 21.8137 27.4659 21.6372 27.3271Z" fill="#2C405A"/>
</svg>

